<?xml version="1.0" encoding="iso-8859-1"?>
<!-- Generator: Adobe Illustrator 19.0.0, SVG Export Plug-In . SVG Version: 6.00 Build 0)  -->
<svg version="1.1" id="Layer_1" xmlns="http://www.w3.org/2000/svg" xmlns:xlink="http://www.w3.org/1999/xlink" x="0px" y="0px"
	 viewBox="0 0 512 512" style="enable-background:new 0 0 512 512;" xml:space="preserve">
<g>
	<g>
		<g>
			<path d="M460.999,136.411c-18.463-18.85-42.308-30.657-68.127-33.938C375.286,42.433,319.53,0,256,0
				S136.714,42.433,119.129,102.473c-25.819,3.281-49.664,15.088-68.127,33.938c-21.358,21.807-33.113,50.625-33.113,81.157
				c0,59.611,41.681,107.395,97.426,115.001v66.309h15.673h15.673h16.342v-64.512h31.347v64.512h45.976v-64.512h31.347v64.512
				h46.843v-64.512h31.347v64.512h15.475h15.673h15.673V332.57c55.745-7.607,97.426-55.39,97.426-115.001
				C494.111,187.037,482.346,158.218,460.999,136.411z"/>
			<polygon points="365.338,430.226 146.662,430.226 130.988,430.226 115.315,430.226 115.315,512 396.685,512 396.685,430.226 
				381.012,430.226 			"/>
		</g>
	</g>
</g>
<g>
</g>
<g>
</g>
<g>
</g>
<g>
</g>
<g>
</g>
<g>
</g>
<g>
</g>
<g>
</g>
<g>
</g>
<g>
</g>
<g>
</g>
<g>
</g>
<g>
</g>
<g>
</g>
<g>
</g>
</svg>
