<?xml version="1.0" encoding="iso-8859-1"?>
<!-- Generator: Adobe Illustrator 19.0.0, SVG Export Plug-In . SVG Version: 6.00 Build 0)  -->
<svg version="1.1" id="Layer_1" xmlns="http://www.w3.org/2000/svg" xmlns:xlink="http://www.w3.org/1999/xlink" x="0px" y="0px"
	 viewBox="0 0 512 512" style="enable-background:new 0 0 512 512;" xml:space="preserve">
<g>
	<g>
		<g>
			<path d="M159.446,266.964c-0.288,1.138-0.487,2.306-0.487,3.532v107.125c0,8.003,6.507,14.506,14.501,14.506h165.328
				c7.999,0,14.501-6.507,14.501-14.506V270.497c0-1.222-0.199-2.395-0.482-3.532H159.446z"/>
			<path d="M256,0C114.623,0,0,114.614,0,256c0,141.377,114.623,256,256,256c141.386,0,256-114.623,256-256
				C512,114.61,397.386,0,256,0z M303.27,81.562c8.198,0,16.387,0,24.58,0c-29.498,35.841,29.498,71.682,0,107.523
				c-8.193,0-16.382,0-24.58,0C332.768,153.244,273.772,117.399,303.27,81.562z M243.836,81.562c8.198,0,16.387,0,24.58,0
				c-29.498,35.841,29.494,71.682,0,107.523c-8.193,0-16.382,0-24.58,0C273.334,153.244,214.338,117.399,243.836,81.562z
				 M184.402,81.562c8.198,0,16.387,0,24.576,0c-29.494,35.841,29.498,71.682,0,107.523c-8.189,0-16.378,0-24.576,0
				C213.9,153.244,154.904,117.399,184.402,81.562z M412.183,327.864l-32.335,8.344v41.414c0,22.641-18.419,41.064-41.06,41.064
				H173.46c-22.641,0-41.06-18.423-41.06-41.064v-41.958l-30.219-7.799c-9.468-2.443-15.165-12.098-12.722-21.566
				c2.443-9.473,12.106-15.178,21.57-12.722l21.371,5.515v-28.595c0-2.098,0.208-4.143,0.513-6.153
				c-7.003-3.696-11.823-10.956-11.823-19.419c0-12.173,9.867-22.039,22.039-22.039h225.997c12.168,0,22.039,9.867,22.039,22.039
				c0,8.463-4.825,15.727-11.823,19.419c0.301,2.01,0.509,4.055,0.509,6.153v29.139l23.491-6.06
				c9.459-2.461,19.118,3.249,21.566,12.722C427.348,315.766,421.656,325.42,412.183,327.864z"/>
		</g>
	</g>
</g>
<g>
</g>
<g>
</g>
<g>
</g>
<g>
</g>
<g>
</g>
<g>
</g>
<g>
</g>
<g>
</g>
<g>
</g>
<g>
</g>
<g>
</g>
<g>
</g>
<g>
</g>
<g>
</g>
<g>
</g>
</svg>
