<?xml version="1.0" encoding="iso-8859-1"?>
<!-- Generator: Adobe Illustrator 18.1.1, SVG Export Plug-In . SVG Version: 6.00 Build 0)  -->
<svg version="1.1" id="Capa_1" xmlns="http://www.w3.org/2000/svg" xmlns:xlink="http://www.w3.org/1999/xlink" x="0px" y="0px"
	 viewBox="0 0 40.577 40.577" style="enable-background:new 0 0 40.577 40.577;" xml:space="preserve">
<g>
	<g id="b170_utensil">
		<path d="M36.124,18.043c4.467-4.465,5.795-10.381,2.967-13.213c-2.829-2.826-8.747-1.5-13.213,2.967
			c-3.837,3.838-5.354,8.74-3.916,11.842l-0.598,0.6l-4.465-4.465c2.629-2.627,2.155-4.316,2.155-4.316L9.706,2.113L0,11.816
			l9.35,9.35c0,0,1.854,0.301,4.312-2.156l4.467,4.463l-0.957,0.959l-0.998-0.996L5.458,34.148l4.311,4.316l10.718-10.715l-1-0.998
			l0.962-0.957l1.841,1.84l-0.628,0.627l9.908,9.91l4.492-4.494l-9.909-9.908L25.526,24.4l-1.845-1.842l0.604-0.6
			C27.383,23.398,32.287,21.883,36.124,18.043z M38.191,11.125l-9.347,9.346l-1.081-1.078l9.351-9.348L38.191,11.125z M36.034,8.965
			l-9.349,9.35l-1.078-1.082l9.351-9.342L36.034,8.965z M32.799,5.73l1.077,1.078l-9.346,9.35l-1.08-1.082L32.799,5.73z"/>
	</g>
	<g id="Capa_1_122_">
	</g>
</g>
<g>
</g>
<g>
</g>
<g>
</g>
<g>
</g>
<g>
</g>
<g>
</g>
<g>
</g>
<g>
</g>
<g>
</g>
<g>
</g>
<g>
</g>
<g>
</g>
<g>
</g>
<g>
</g>
<g>
</g>
</svg>
