<?xml version="1.0" encoding="iso-8859-1"?>
<!-- Generator: Adobe Illustrator 19.0.0, SVG Export Plug-In . SVG Version: 6.00 Build 0)  -->
<svg version="1.1" id="Layer_1" xmlns="http://www.w3.org/2000/svg" xmlns:xlink="http://www.w3.org/1999/xlink" x="0px" y="0px"
	 viewBox="0 0 512 512" style="enable-background:new 0 0 512 512;" xml:space="preserve">
<g>
	<g>
		<path d="M256,0C114.623,0,0,114.614,0,256c0,141.377,114.623,256,256,256c141.386,0,256-114.623,256-256
			C512,114.61,397.386,0,256,0z M224.045,442.026L97.869,315.846l19.649-19.649l126.176,126.176L224.045,442.026z M392.738,273.533
			c-1.169,1.164-2.359,2.289-3.577,3.369L262.476,403.596L136.3,277.42l17.586-17.586c0,0-18.511-64.131,34.296-116.947
			c11.482-11.478,30.096-11.478,41.578,0c10.424,10.424,11.354,26.705,2.859,38.209l30.366-30.366
			c1.084-1.208,2.209-2.404,3.377-3.572c34.894-34.903,91.477-34.903,126.38,0C427.636,182.052,427.632,238.635,392.738,273.533z"/>
	</g>
</g>
<g>
</g>
<g>
</g>
<g>
</g>
<g>
</g>
<g>
</g>
<g>
</g>
<g>
</g>
<g>
</g>
<g>
</g>
<g>
</g>
<g>
</g>
<g>
</g>
<g>
</g>
<g>
</g>
<g>
</g>
</svg>
